<?xml version="1.0" encoding="utf-8"?>
<svg id="b21613c9-2bf0-4d37-bef0-3b193d34fc5d" data-name="Layer 1" width="647.63626" height="632.17383" viewBox="0 0 647.63626 632.17383" xmlns="http://www.w3.org/2000/svg">
  <rect x="149.444" y="504.002" width="425.63" height="489.088" style="fill: rgb(40, 42, 46);" rx="15.577" ry="15.577" transform="matrix(0.955966, -0.293477, 0.293477, 0.955966, -292.983337, -315.622131)"/>
  <rect x="220.316" y="140.806" width="425.867" height="489.932" style="fill: rgb(40, 42, 46);" rx="15.156" ry="15.156"/>
  <path d="M 410.146 141.174 L 235.636 141.174 C 227.356 141.184 220.646 147.894 220.636 156.174 L 220.636 544.024 L 218.636 544.634 L 175.826 557.744 C 171.602 559.032 167.132 556.656 165.836 552.434 L 38.496 136.484 C 37.206 132.259 39.582 127.788 43.806 126.494 L 109.776 106.294 L 301.026 47.754 L 366.996 27.554 C 371.219 26.254 375.695 28.629 376.986 32.854 L 409.536 139.174 Z" fill="#f2f2f2"/>
  <path d="M725.408,274.08691l-39.23-128.14a16.99368,16.99368,0,0,0-21.23-11.28l-92.75,28.39L380.95827,221.60693l-92.75,28.4a17.0152,17.0152,0,0,0-11.28028,21.23l134.08008,437.93a17.02661,17.02661,0,0,0,16.26026,12.03,16.78926,16.78926,0,0,0,4.96972-.75l63.58008-19.46,2-.62v-2.09l-2,.61-64.16992,19.65a15.01489,15.01489,0,0,1-18.73-9.95l-134.06983-437.94a14.97935,14.97935,0,0,1,9.94971-18.73l92.75-28.4,191.24024-58.54,92.75-28.4a15.15551,15.15551,0,0,1,4.40966-.66,15.01461,15.01461,0,0,1,14.32032,10.61l39.0498,127.56.62012,2h2.08008Z" transform="translate(-276.18187 -133.91309)" fill="#3f3d56"/>
  <path d="M398.86279,261.73389a9.0157,9.0157,0,0,1-8.61133-6.3667l-12.88037-42.07178a8.99884,8.99884,0,0,1,5.9712-11.24023l175.939-53.86377a9.00867,9.00867,0,0,1,11.24072,5.9707l12.88037,42.07227a9.01029,9.01029,0,0,1-5.9707,11.24072L401.49219,261.33887A8.976,8.976,0,0,1,398.86279,261.73389Z" transform="translate(-276.18187 -133.91309)" fill="#6c63ff"/>
  <circle cx="190.15351" cy="24.95465" r="20" fill="#6c63ff"/>
  <circle cx="190.15351" cy="24.95465" r="12.66462" fill="#fff"/>
  <path d="M878.81836,716.08691h-338a8.50981,8.50981,0,0,1-8.5-8.5v-405a8.50951,8.50951,0,0,1,8.5-8.5h338a8.50982,8.50982,0,0,1,8.5,8.5v405A8.51013,8.51013,0,0,1,878.81836,716.08691Z" transform="translate(-276.18187 -133.91309)" fill="#e6e6e6"/>
  <path d="M723.31813,274.08691h-210.5a17.02411,17.02411,0,0,0-17,17v407.8l2-.61v-407.19a15.01828,15.01828,0,0,1,15-15H723.93825Zm183.5,0h-394a17.02411,17.02411,0,0,0-17,17v458a17.0241,17.0241,0,0,0,17,17h394a17.0241,17.0241,0,0,0,17-17v-458A17.02411,17.02411,0,0,0,906.81813,274.08691Zm15,475a15.01828,15.01828,0,0,1-15,15h-394a15.01828,15.01828,0,0,1-15-15v-458a15.01828,15.01828,0,0,1,15-15h394a15.01828,15.01828,0,0,1,15,15Z" transform="translate(-276.18187 -133.91309)" fill="#3f3d56"/>
  <path d="M801.81836,318.08691h-184a9.01015,9.01015,0,0,1-9-9v-44a9.01016,9.01016,0,0,1,9-9h184a9.01016,9.01016,0,0,1,9,9v44A9.01015,9.01015,0,0,1,801.81836,318.08691Z" transform="translate(-276.18187 -133.91309)" fill="#6c63ff"/>
  <circle cx="433.63626" cy="105.17383" r="20" fill="#6c63ff"/>
  <circle cx="433.63626" cy="105.17383" r="12.18187" fill="#fff"/>
</svg>
